<svg width="197" height="204" viewBox="0 0 197 204" fill="none" xmlns="http://www.w3.org/2000/svg">
<g clip-path="url(#clip0_2_499)" filter="url(#filter0_d_2_499)">
<path d="M188.773 75.4048C191.197 89.4167 176.331 85.6845 176.331 85.6845C170.11 68.1369 160.156 69.7738 160.156 69.7738C167.949 75.4703 168.538 80.3155 168.538 80.3155C147.779 65.5834 119.554 77.4345 108.814 83C102.789 74.4881 90.6089 55.4345 94.931 46.7917C100.628 35.4643 112.219 41.9464 112.219 41.9464C135.664 41.5536 134.354 33.1726 134.354 33.1726C128.133 38.0179 109.796 33.1726 109.796 33.1726C125.71 33.1726 132.455 26.6905 132.455 26.6905C120.602 29.6369 107.373 17 107.373 17C102.527 -7.81546 80.131 2.72621 80.131 2.72621C94.1452 0.303591 90.4124 15.1667 90.4124 15.1667C72.862 21.3869 74.4991 31.3393 74.4991 31.3393C80.1965 23.5476 85.0425 22.9584 85.0425 22.9584C68.9983 45.5476 84.4531 76.9762 89.0372 85.1607C80.6549 90.9881 61.0089 103.821 52.1682 99.3691C40.839 93.6726 47.3221 82.0834 47.3221 82.0834C47.0602 58.6429 38.6779 59.9524 38.6779 59.9524C43.5239 66.1726 38.6779 84.506 38.6779 84.506C38.6779 68.5953 32.1947 61.8512 32.1947 61.8512C35.1416 73.7024 22.5027 86.9286 22.5027 86.9286C-2.3168 91.7738 8.22657 114.167 8.22657 114.167C5.80356 100.155 20.669 103.887 20.669 103.887C26.8903 121.435 36.8443 119.798 36.8443 119.798C29.0513 114.101 28.462 109.256 28.462 109.256C50.4 124.839 80.7204 110.696 89.8885 105.72C96.0443 114.56 107.504 132.762 103.248 141.208C97.5505 152.536 85.9593 146.054 85.9593 146.054C62.5151 146.315 63.8248 154.696 63.8248 154.696C70.0461 149.851 88.3823 154.696 88.3823 154.696C72.4691 154.696 65.7239 161.179 65.7239 161.179C77.577 158.232 90.8053 170.869 90.8053 170.869C95.6514 195.685 118.048 185.143 118.048 185.143C104.034 187.565 107.766 172.702 107.766 172.702C125.317 166.482 123.68 156.53 123.68 156.53C117.982 164.321 113.136 164.911 113.136 164.911C128.853 142.845 114.381 112.268 109.469 103.298C118.375 97.0774 136.384 85.9464 144.701 90.1369C156.03 95.8333 149.547 107.423 149.547 107.423C149.809 130.863 158.191 129.554 158.191 129.554C153.345 123.333 158.191 105 158.191 105C158.191 120.911 164.674 127.655 164.674 127.655C161.727 115.804 174.366 102.577 174.366 102.577C199.317 97.7976 188.773 75.4048 188.773 75.4048Z" fill="url(#paint0_linear_2_499)"/>
</g>
<defs>
<filter id="filter0_d_2_499" x="0" y="0.5" width="197" height="203" filterUnits="userSpaceOnUse" color-interpolation-filters="sRGB">
<feFlood flood-opacity="0" result="BackgroundImageFix"/>
<feColorMatrix in="SourceAlpha" type="matrix" values="0 0 0 0 0 0 0 0 0 0 0 0 0 0 0 0 0 0 127 0" result="hardAlpha"/>
<feOffset dy="10"/>
<feGaussianBlur stdDeviation="3"/>
<feComposite in2="hardAlpha" operator="out"/>
<feColorMatrix type="matrix" values="0 0 0 0 0 0 0 0 0 0 0 0 0 0 0 0 0 0 0.25 0"/>
<feBlend mode="normal" in2="BackgroundImageFix" result="effect1_dropShadow_2_499"/>
<feBlend mode="normal" in="SourceGraphic" in2="effect1_dropShadow_2_499" result="shape"/>
</filter>
<linearGradient id="paint0_linear_2_499" x1="98.4937" y1="0.501953" x2="98.4937" y2="187.367" gradientUnits="userSpaceOnUse">
<stop stop-color="#C0B7E8"/>
<stop offset="1" stop-color="#8176AF"/>
</linearGradient>
<clipPath id="clip0_2_499">
<rect width="185" height="187" fill="white" transform="translate(6 0.5)"/>
</clipPath>
</defs>
</svg>
