<svg width="199" height="119" viewBox="0 0 199 119" fill="none" xmlns="http://www.w3.org/2000/svg">
<g clip-path="url(#clip0_20_341)" filter="url(#filter0_d_20_341)">
<path d="M106.772 41.2579C108.108 48.9757 99.9121 46.92 99.9121 46.92C96.482 37.2547 90.9939 38.1563 90.9939 38.1563C95.2905 41.2939 95.6155 43.9627 95.6155 43.9627C84.1698 35.8482 68.6081 42.3759 62.6866 45.4413C59.3649 40.753 52.6491 30.2582 55.0321 25.4977C58.1734 19.2586 64.5642 22.8289 64.5642 22.8289C77.4902 22.6126 76.7681 17.9963 76.7681 17.9963C73.338 20.6651 63.2282 17.9963 63.2282 17.9963C72.002 17.9963 75.721 14.4259 75.721 14.4259C69.1858 16.0488 61.8923 9.08839 61.8923 9.08839C59.2204 -4.58003 46.8721 1.22635 46.8721 1.22635C54.5989 -0.108037 52.5408 8.07859 52.5408 8.07859C42.8643 11.5047 43.767 16.9865 43.767 16.9865C46.9082 12.6948 49.5801 12.3703 49.5801 12.3703C40.7341 24.8125 49.2551 42.1234 51.7826 46.6315C47.161 49.8412 36.3291 56.9098 31.4548 54.4574C25.2084 51.3198 28.7829 44.9364 28.7829 44.9364C28.6385 32.0254 24.0169 32.7467 24.0169 32.7467C26.6888 36.1728 24.0169 46.2708 24.0169 46.2708C24.0169 37.5072 20.4424 33.7925 20.4424 33.7925C22.0672 40.3202 15.0987 47.6052 15.0987 47.6052C1.41442 50.274 7.22752 62.608 7.22752 62.608C5.89159 54.8902 14.0877 56.9459 14.0877 56.9459C17.5178 66.6112 23.0059 65.7095 23.0059 65.7095C18.7093 62.5719 18.3843 59.9032 18.3843 59.9032C30.4799 68.4865 47.1971 60.6966 52.252 57.9557C55.6459 62.8244 61.9645 72.8503 59.6176 77.5026C56.4764 83.7418 50.0856 80.1714 50.0856 80.1714C37.1596 80.3156 37.8817 84.9319 37.8817 84.9319C41.3118 82.2631 51.4215 84.9319 51.4215 84.9319C42.6477 84.9319 38.9288 88.5023 38.9288 88.5023C45.464 86.8794 52.7574 93.8398 52.7574 93.8398C55.4293 107.508 67.7776 101.702 67.7776 101.702C60.0509 103.036 62.1089 94.8496 62.1089 94.8496C71.7854 91.4235 70.8828 85.9417 70.8828 85.9417C67.7415 90.2334 65.0697 90.5579 65.0697 90.5579C73.7351 78.4042 65.7557 61.5621 63.0477 56.6213C67.9581 53.1952 77.8874 47.0642 82.4728 49.3724C88.7192 52.51 85.1447 58.8934 85.1447 58.8934C85.2891 71.8044 89.9107 71.0831 89.9107 71.0831C87.2389 67.657 89.9107 57.559 89.9107 57.559C89.9107 66.3226 93.4852 70.0373 93.4852 70.0373C91.8605 63.5096 98.829 56.2246 98.829 56.2246C112.585 53.5919 106.772 41.2579 106.772 41.2579Z" fill="url(#paint0_linear_20_341)"/>
</g>
<g clip-path="url(#clip1_20_341)">
<path d="M123 29H125.321V56.4049H132.251V29H134.572V75H132.251V58.7131H125.321V75H123V29Z" fill="url(#paint1_linear_20_341)"/>
<path d="M151.733 29L145.98 58.7131V75H143.659V58.7131L137.873 29H139.998L144.836 53.7717L149.641 29H151.733Z" fill="url(#paint2_linear_20_341)"/>
<path d="M161.997 75H155.034V29H161.964C164.547 29 166.573 31.0481 166.573 33.5837V70.3837C166.606 72.8869 164.547 75 161.997 75ZM157.355 31.3081V72.6919H161.964C163.206 72.6919 164.285 71.6516 164.285 70.3837V33.5837C164.285 32.3484 163.239 31.2756 161.964 31.2756H157.355V31.3081Z" fill="url(#paint3_linear_20_341)"/>
<path d="M181.806 75H179.42L175.334 58.7131H172.555V75H170.234V29H177.164C179.747 29 181.773 31.0481 181.773 33.5837V54.0968C181.773 56.4049 179.975 58.3555 177.687 58.6155L181.806 75ZM172.555 56.4049H177.164C178.406 56.4049 179.485 55.3647 179.485 54.0968V33.5837C179.485 32.3484 178.439 31.2756 177.164 31.2756H172.555V56.4049Z" fill="url(#paint4_linear_20_341)"/>
<path d="M188.801 58.7131L187.199 75H185.107L189.749 29H194.358L198.967 75H196.875L195.273 58.7131H188.801ZM192.495 31.3081H191.58L189.063 56.4049H195.012L192.495 31.3081Z" fill="url(#paint5_linear_20_341)"/>
</g>
<defs>
<filter id="filter0_d_20_341" x="0" y="0" width="114" height="119" filterUnits="userSpaceOnUse" color-interpolation-filters="sRGB">
<feFlood flood-opacity="0" result="BackgroundImageFix"/>
<feColorMatrix in="SourceAlpha" type="matrix" values="0 0 0 0 0 0 0 0 0 0 0 0 0 0 0 0 0 0 127 0" result="hardAlpha"/>
<feOffset dy="10"/>
<feGaussianBlur stdDeviation="3"/>
<feComposite in2="hardAlpha" operator="out"/>
<feColorMatrix type="matrix" values="0 0 0 0 0 0 0 0 0 0 0 0 0 0 0 0 0 0 0.25 0"/>
<feBlend mode="normal" in2="BackgroundImageFix" result="effect1_dropShadow_20_341"/>
<feBlend mode="normal" in="SourceGraphic" in2="effect1_dropShadow_20_341" result="shape"/>
</filter>
<linearGradient id="paint0_linear_20_341" x1="56.9964" y1="0.0012207" x2="56.9964" y2="102.927" gradientUnits="userSpaceOnUse">
<stop stop-color="#C0B7E8"/>
<stop offset="1" stop-color="#8176AF"/>
</linearGradient>
<linearGradient id="paint1_linear_20_341" x1="128.786" y1="29" x2="128.786" y2="75" gradientUnits="userSpaceOnUse">
<stop stop-color="#C0B7E8"/>
<stop offset="1" stop-color="#8176AF"/>
</linearGradient>
<linearGradient id="paint2_linear_20_341" x1="144.803" y1="29" x2="144.803" y2="75" gradientUnits="userSpaceOnUse">
<stop stop-color="#C0B7E8"/>
<stop offset="1" stop-color="#8176AF"/>
</linearGradient>
<linearGradient id="paint3_linear_20_341" x1="160.804" y1="29" x2="160.804" y2="75" gradientUnits="userSpaceOnUse">
<stop stop-color="#C0B7E8"/>
<stop offset="1" stop-color="#8176AF"/>
</linearGradient>
<linearGradient id="paint4_linear_20_341" x1="176.02" y1="29" x2="176.02" y2="75" gradientUnits="userSpaceOnUse">
<stop stop-color="#C0B7E8"/>
<stop offset="1" stop-color="#8176AF"/>
</linearGradient>
<linearGradient id="paint5_linear_20_341" x1="192.037" y1="29" x2="192.037" y2="75" gradientUnits="userSpaceOnUse">
<stop stop-color="#C0B7E8"/>
<stop offset="1" stop-color="#8176AF"/>
</linearGradient>
<clipPath id="clip0_20_341">
<rect width="102" height="103" fill="white" transform="translate(6)"/>
</clipPath>
<clipPath id="clip1_20_341">
<rect width="76" height="46" fill="white" transform="translate(123 29)"/>
</clipPath>
</defs>
</svg>
