<svg width="42" height="63" viewBox="0 0 42 63" fill="none" xmlns="http://www.w3.org/2000/svg">
<path fill-rule="evenodd" clip-rule="evenodd" d="M21.0002 0.833374C32.276 0.833374 41.4168 9.97423 41.4168 21.25C41.4168 24.6594 40.5836 27.8718 39.1041 30.6984L21.0002 62.0834L3.31557 31.4596C1.57516 28.4542 0.583496 24.9693 0.583496 21.25C0.583496 9.97423 9.72435 0.833374 21.0002 0.833374ZM21.0002 6.66671C12.946 6.66671 6.41683 13.1959 6.41683 21.25C6.41683 23.566 6.95111 25.7882 7.96217 27.7943L8.45215 28.6893L21.0002 50.4167L33.6368 28.5363C34.9073 26.3423 35.5835 23.8555 35.5835 21.25C35.5835 13.1959 29.0543 6.66671 21.0002 6.66671ZM21.0002 12.5C25.8327 12.5 29.7502 16.4175 29.7502 21.25C29.7502 26.0825 25.8327 30 21.0002 30C16.1677 30 12.2502 26.0825 12.2502 21.25C12.2502 16.4175 16.1677 12.5 21.0002 12.5ZM21.0002 18.3334C19.3893 18.3334 18.0835 19.6392 18.0835 21.25C18.0835 22.8609 19.3893 24.1667 21.0002 24.1667C22.611 24.1667 23.9168 22.8609 23.9168 21.25C23.9168 19.6392 22.611 18.3334 21.0002 18.3334Z" fill="#C0B7E8"/>
</svg>
